Coordinates
version=1
nRows=26
nColumns=24
inDegrees=yes

Units are S.I. units (second, meters, Newtons, ...)
Angles are in degrees.

endheader
time	pelvis_tilt	pelvis_list	pelvis_rotation	pelvis_tx	pelvis_ty	pelvis_tz	hip_flexion_r	hip_adduction_r	hip_rotation_r	knee_angle_r	ankle_angle_r	subtalar_angle_r	mtp_angle_r	hip_flexion_l	hip_adduction_l	hip_rotation_l	knee_angle_l	ankle_angle_l	subtalar_angle_l	mtp_angle_l	lumbar_extension	lumbar_bending	lumbar_rotation
      0.43300000	     -1.70501172	      0.98526330	      2.77777261	     -0.81016656	      1.04142078	      0.29267510	     28.38804813	     -1.58789451	     -5.27232688	     -3.17705082	      9.58959851	     -3.66177321	      9.48210213	    -16.84393377	      1.97068501	      5.71114817	     -5.58163336	     18.63518899	      6.80610856	      4.48098213	    -14.71798515	      0.77310242	     -4.80681468
      0.43716667	     -1.68444917	      1.01338938	      2.93094254	     -0.80412879	      1.04042638	      0.29273375	     28.27530611	     -1.61430695	     -5.02455246	     -3.49610388	      9.54596385	     -3.84600341	      9.47499640	    -16.98764045	      1.93250193	      5.73240779	     -6.05809588	     18.74140030	      6.99577971	      4.54346097	    -14.72183329	      0.88431045	     -4.90704918
      0.44133333	     -1.69770685	      1.03722388	      3.08678746	     -0.79800658	      1.03941878	      0.29279960	     28.18291719	     -1.63704753	     -4.78419799	     -3.81923828	      9.45890034	     -4.03940735	      9.47531411	    -17.07561630	      1.88767545	      5.73393381	     -6.58236891	     18.85073666	      7.24155746	      4.63647819	    -14.67318042	      0.99958756	     -4.97315850
      0.44550000	     -1.68422709	      1.04587128	      3.24221528	     -0.79184955	      1.03849705	      0.29286655	     28.04791813	     -1.64285868	     -4.57422184	     -4.14195006	      9.32943982	     -4.22817110	      9.48470700	    -17.17719262	      1.82225739	      5.70184290	     -7.14053089	     18.93877182	      7.52340048	      4.77566815	    -14.65617653	      1.14206860	     -5.04497319
      0.44966667	     -1.68247566	      1.06129308	      3.39784812	     -0.78566802	      1.03760685	      0.29294868	     27.91614570	     -1.65431316	     -4.37480561	     -4.46623436	      9.15563663	     -4.41659921	      9.50467842	    -17.24564655	      1.76218697	      5.67866668	     -7.73905987	     19.00362573	      7.80886964	      4.94465167	    -14.61945658	      1.27218132	     -5.10398519
      0.45383333	     -1.67862222	      1.06371678	      3.55506302	     -0.77943208	      1.03677535	      0.29303011	     27.76934594	     -1.65340044	     -4.20990056	     -4.78560115	      8.92703169	     -4.60641554	      9.53611188	    -17.29694244	      1.68430029	      5.61760202	     -8.37692723	     19.04567870	      8.13236132	      5.15697019	    -14.57763674	      1.42349349	     -5.16644922
      0.45800000	     -1.68600036	      1.06505615	      3.70405890	     -0.77316655	      1.03597920	      0.29312757	     27.63507045	     -1.64865216	     -4.06913274	     -5.11871301	      8.63680361	     -4.81124324	      9.58246351	    -17.31455661	      1.60593519	      5.53387229	     -9.06056160	     19.06602239	      8.47977526	      5.42658183	    -14.52700307	      1.57735681	     -5.21383886
      0.46216667	     -1.67620303	      1.05837276	      3.85399426	     -0.76688522	      1.03527427	      0.29323043	     27.46952074	     -1.63539367	     -3.94891108	     -5.43301102	      8.28701971	     -5.02364155	      9.64654487	    -17.32807078	      1.51417696	      5.42954680	     -9.78515480	     19.05152075	      8.85441307	      5.76999458	    -14.49338514	      1.74311232	     -5.25864867
      0.46633333	     -1.68701048	      1.03331740	      4.01154534	     -0.76052138	      1.03461755	      0.29331860	     27.30967859	     -1.60991749	     -3.87595097	     -5.72629420	      7.89762881	     -5.23143153	      9.71218390	    -17.29728096	      1.40098904	      5.32869158	    -10.55602846	     18.99848365	      9.19506737	      6.11096401	    -14.40895937	      1.92467915	     -5.28769929
      0.47050000	     -1.67065210	      1.00600453	      4.15709659	     -0.75418902	      1.03406587	      0.29342997	     27.13018926	     -1.57734505	     -3.82956370	     -6.03597267	      7.43957214	     -5.45198506	      9.78385692	    -17.27102827	      1.28403335	      5.20993433	    -11.36862654	     18.91332195	      9.57397135	      6.48890966	    -14.37393601	      2.11732632	     -5.30559967
      0.47466667	     -1.67627920	      0.99436147	      4.28869144	     -0.74785584	      1.03355066	      0.29359954	     26.98248951	     -1.55592876	     -3.76838184	     -6.35945410	      6.91500755	     -5.68266932	      9.90418666	    -17.18738663	      1.18090498	      5.02723735	    -12.24124211	     18.78379387	     10.05792773	      7.12468207	    -14.32345932	      2.26311842	     -5.31009512
      0.47883333	     -1.68206903	      0.94140063	      4.42306221	     -0.74144752	      1.03311505	      0.29370128	     26.84998023	     -1.50592476	     -3.84289647	     -6.72391384	      6.40440034	     -5.83937714	     10.60416806	    -17.10203490	      1.04141059	      4.91056172	    -13.10385163	     18.50370764	     10.31704329	     10.83562677	    -14.24957050	      2.50016357	     -5.25423020
      0.48300000	     -1.67663724	      0.87918027	      4.54177206	     -0.73505209	      1.03277959	      0.29386954	     26.69898837	     -1.43541953	     -3.85545934	     -7.06751563	      5.81558897	     -6.10464198	     10.59432657	    -16.98581257	      0.88876286	      4.74364020	    -14.05570132	     18.30369278	     10.69487246	     10.92986140	    -14.19404394	      2.74419242	     -5.28134850
      0.48716667	     -1.68913751	      0.80842062	      4.65186656	     -0.72864233	      1.03248538	      0.29405151	     26.58629998	     -1.35961229	     -3.90795538	     -7.45080172	      5.23380744	     -6.33102432	     10.59392192	    -16.81792187	      0.72467227	      4.51979371	    -15.06727718	     18.04564205	     11.13287293	     11.10839117	    -14.11240053	      2.98189883	     -5.23281322
      0.49133333	     -1.67781024	      0.72312539	      4.75109063	     -0.72223912	      1.03231010	      0.29425678	     26.46199404	     -1.26790405	     -3.97914243	     -7.86238490	      4.65361652	     -6.54667862	     10.59833984	    -16.64196604	      0.54155944	      4.27513346	    -16.12753904	     17.74061389	     11.58736136	     11.36789047	    -14.06177924	      3.24248313	     -5.17355160
      0.49550000	     -1.67986843	      0.63805319	      4.82779416	     -0.71583918	      1.03218186	      0.29450758	     26.38154605	     -1.17329073	     -4.06135548	     -8.33350703	      4.08550488	     -6.74306646	     10.60651329	    -16.42641379	      0.36100851	      4.00039641	    -17.23106876	     17.36387798	     12.05565491	     11.74406837	    -13.99770281	      3.49768159	     -5.09816902
      0.49966667	     -1.66647965	      0.54573280	      4.89823974	     -0.70945048	      1.03216737	      0.29479577	     26.29105965	     -1.07017070	     -4.13905974	     -8.81996626	      3.54330196	     -6.91792507	     10.61832665	    -16.19126647	      0.16337178	      3.69189036	    -18.38291831	     16.90237617	     12.55703428	     12.33928602	    -13.95205273	      3.73766696	     -5.01101766
      0.50383333	     -1.66250423	      0.43278885	      4.95828801	     -0.70305742	      1.03222065	      0.29507201	     26.23431351	     -0.94961709	     -4.23626896	     -9.36038469	      3.01393486	     -7.12208313	     10.69004926	    -15.92866609	     -0.04017484	      3.47384008	    -19.55176793	     16.30137732	     12.78636246	     16.65835696	    -13.89735452	      4.03496162	     -4.88875339
      0.50800000	     -1.65832208	      0.31693473	      4.99802669	     -0.69666621	      1.03231284	      0.29538428	     26.22037334	     -0.83036376	     -4.40424163	    -10.00006796	      2.63780720	     -7.12262962	     10.67795664	    -15.62259529	     -0.25659706	      3.15763216	    -20.80129593	     15.74434960	     13.22063395	     16.75247195	    -13.83535792	      4.33312213	     -4.78136609
      0.51216667	     -1.64423954	      0.19182656	      5.01896570	     -0.69030187	      1.03248614	      0.29575673	     26.20408644	     -0.69191864	     -4.51851340	    -10.65466448	      2.25984183	     -7.19611438	     10.65765453	    -15.29347841	     -0.48845859	      2.80686497	    -22.10039916	     15.11145828	     13.66618642	     16.92901884	    -13.79551666	      4.62969735	     -4.64381770
      0.51633333	     -1.61771774	      0.07449607	      5.02515295	     -0.68396804	      1.03274717	      0.29618774	     26.18456356	     -0.55454556	     -4.59707560	    -11.33556068	      1.94818992	     -7.27517143	     10.61636810	    -14.94707560	     -0.71871291	      2.44971688	    -23.43860848	     14.38117026	     14.12665626	     17.32836862	    -13.77872758	      4.89568997	     -4.50064065
      0.52050000	     -1.60051860	     -0.06243708	      5.01647153	     -0.67763078	      1.03304928	      0.29662333	     26.18243823	     -0.39583386	     -4.67190520	    -12.03252065	      1.61624271	     -7.36333917	     10.26397908	    -14.56553069	     -0.96281076	      2.11446290	    -24.80114617	     13.53996638	     14.40924084	     20.87390940	    -13.74152214	      5.20559821	     -4.32377090
      0.52466667	     -1.57402491	     -0.19452947	      4.98924864	     -0.67130950	      1.03338983	      0.29709417	     26.19843022	     -0.24393763	     -4.79494337	    -12.79832232	      1.46661015	     -7.26019172	     10.25484937	    -14.16390729	     -1.20808025	      1.74912502	    -26.21664121	     12.69046025	     14.75034431	     20.94134292	    -13.72009996	      5.50566490	     -4.17175751
      0.52883333	     -1.54659110	     -0.32575033	      4.94810814	     -0.66501764	      1.03378093	      0.29761850	     26.20911434	     -0.08326594	     -4.86855075	    -13.55510782	      1.31041229	     -7.22549843	     10.23438454	    -13.73111111	     -1.45741390	      1.37998373	    -27.67308977	     11.78533618	     15.08929073	     21.06406321	    -13.70533338	      5.79470239	     -3.99801327
      0.53300000	     -1.50148310	     -0.45599229	      4.88741204	     -0.65875406	      1.03422588	      0.29819562	     26.20053991	      0.08752995	     -4.91586636	    -14.31021458	      1.19213955	     -7.18759083	     10.20256134	    -13.29357864	     -1.71158656	      0.99916063	    -29.15721284	     10.82179942	     15.40148797	     21.24091844	    -13.71951163	      6.08035431	     -3.80786022
      0.53716667	     -1.46083460	     -0.58471534	      4.81610715	     -0.65250186	      1.03469906	      0.29881405	     26.18528171	      0.26280985	     -4.94438482	    -15.04397951	      1.10716578	     -7.13294242	     10.16554507	    -12.82560739	     -1.96975784	      0.61785764	    -30.67083132	      9.78791807	     15.66248195	     21.43193608	    -13.72348860	      6.35053612	     -3.62103470
